<svg xmlns="http://www.w3.org/2000/svg" viewBox="0 0 512 512" role="img" aria-labelledby="title desc">
  <title id="title">mudata-rs sticker</title>
  <desc id="desc">OmicVerse repository hex sticker for mudata-rs.</desc>
  <defs>
    <linearGradient id="bg" x1="112" y1="90" x2="398" y2="430" gradientUnits="userSpaceOnUse">
      <stop offset="0" stop-color="#060503"/>
      <stop offset=".58" stop-color="#030201"/>
      <stop offset="1" stop-color="#000000"/>
    </linearGradient>
  </defs>
  <polygon points="256,34 450,146 450,368 256,480 62,368 62,146" fill="#000000" opacity=".34"/>
  <polygon points="256,22 458,139 458,373 256,490 54,373 54,139" fill="url(#bg)" stroke="#0B0F0A" stroke-width="19" stroke-linejoin="round"/>
  <polygon points="256,22 458,139 458,373 256,490 54,373 54,139" fill="none" stroke="#FFF1D6" stroke-width="12" stroke-linejoin="round"/>
  <g opacity=".22" stroke="#D8B44C" stroke-width="2.2">
    <path d="M112 166h288M100 222h312M100 278h312M112 334h288"/>
    <path d="M152 126v236M204 104v274M256 96v286M308 104v274M360 126v236"/>
  </g>
  <g id="motif">
    <path d="M256 128l28 28 40-10 16 38 40 10-10 42 26 32-30 30 4 42-42 8-22 36-38-18-38 18-22-36-42-8 4-42-30-30 26-32-10-42 40-10 16-38 40 10z" fill="#7EE35F" opacity=".24" stroke="#FFFFFF" stroke-width="5" stroke-linejoin="round"/>
    <circle cx="256" cy="256" r="58" fill="#00B8D4" opacity=".22" stroke="#FFFFFF" stroke-width="5"/>
    <path d="M220 224l-36 32 36 32M292 224l36 32-36 32M246 304l24-96" stroke="#FFB000" stroke-width="8" stroke-linecap="round" stroke-linejoin="round"/>
  </g>
  <path id="label" d="M314.59,366.23 Q314.74,363.68 315.84,361.76 Q316.94,359.83 318.93,358.69 Q322.36,356.71 325.37,357.78 Q328.39,358.86 330.72,362.89 L337.71,375.00 L331.32,378.69 L325.33,368.32 Q325.21,368.08 325.07,367.83 Q324.94,367.58 324.68,367.11 Q323.46,365.00 322.28,364.41 Q321.11,363.82 319.72,364.62 Q317.92,365.66 317.79,367.72 Q317.67,369.78 319.26,372.63 L324.90,382.40 L318.51,386.09 L312.52,375.72 Q310.61,372.42 309.49,371.80 Q308.38,371.17 306.92,372.01 Q305.09,373.07 304.96,375.14 Q304.83,377.21 306.44,380.00 L312.10,389.79 L305.70,393.48 L294.22,373.59 L300.61,369.90 L302.29,372.81 Q302.50,370.45 303.52,368.72 Q304.55,366.99 306.38,365.93 Q308.43,364.75 310.59,364.83 Q312.75,364.91 314.59,366.23 Z M338.95,363.96 L331.94,351.81 L338.34,348.12 L339.48,350.11 Q340.42,351.72 341.81,354.18 Q343.20,356.63 343.67,357.44 Q345.06,359.84 345.79,360.83 Q346.53,361.81 347.11,362.12 Q347.85,362.52 348.68,362.49 Q349.50,362.46 350.32,361.99 Q352.31,360.84 352.57,358.66 Q352.82,356.47 351.25,353.76 L345.58,343.94 L351.94,340.26 L363.43,360.16 L357.07,363.83 L355.41,360.95 Q354.97,363.52 353.84,365.28 Q352.71,367.03 350.78,368.15 Q347.33,370.14 344.31,369.07 Q341.28,367.99 338.95,363.96 Z M360.91,344.20 L372.06,337.76 L375.05,342.93 L363.90,349.37 L360.91,344.20 Z M391.05,324.91 Q389.99,325.00 389.05,325.29 Q388.12,325.58 387.29,326.06 Q384.84,327.48 384.42,329.82 Q384.00,332.15 385.69,335.08 L390.99,344.24 L384.63,347.91 L373.15,328.02 L379.50,324.35 L381.39,327.62 Q381.49,324.96 382.56,323.15 Q383.63,321.33 385.85,320.05 Q386.17,319.86 386.56,319.68 Q386.95,319.49 387.71,319.17 L391.05,324.91 Z M406.98,309.31 L409.77,314.14 Q407.24,314.47 405.09,315.14 Q402.94,315.81 401.26,316.79 Q399.44,317.83 398.82,318.80 Q398.21,319.76 398.75,320.69 Q399.20,321.46 400.10,321.49 Q401.00,321.51 402.83,320.71 L404.04,320.22 Q409.29,318.02 411.79,318.47 Q414.30,318.92 416.06,321.96 Q417.89,325.13 416.47,328.09 Q415.05,331.04 410.40,333.73 Q408.43,334.86 406.14,335.77 Q403.85,336.67 401.28,337.33 L398.49,332.50 Q400.92,332.32 403.19,331.64 Q405.45,330.94 407.51,329.76 Q409.38,328.68 410.02,327.62 Q410.67,326.56 410.08,325.54 Q409.59,324.69 408.70,324.65 Q407.81,324.61 405.74,325.50 L404.54,326.00 Q399.98,327.92 397.45,327.46 Q394.91,327.01 393.22,324.08 Q391.40,320.92 392.68,318.14 Q393.97,315.36 398.44,312.78 Q400.20,311.76 402.29,310.91 Q404.38,310.06 406.98,309.31 Z" fill="#FFFFFF"/>
</svg>
